<svg width="512" height="512" viewBox="0 0 512 512" fill="none" xmlns="http://www.w3.org/2000/svg">
<path d="M512 256C512 397.385 397.385 512 256 512C114.615 512 0 397.385 0 256C0 114.615 114.615 0 256 0C397.385 0 512 114.615 512 256Z" fill="#2C6BCC"/>
<path d="M512 256C512 397.385 397.385 512 256 512C114.615 512 0 397.385 0 256C0 114.615 114.615 0 256 0C397.385 0 512 114.615 512 256Z" fill="#2C6BCC"/>
<path d="M264.378 294.167V252.276H306.269V294.167H264.378Z" fill="white"/>
<path d="M315.578 294.167V252.276H357.469V294.167H315.578Z" fill="white"/>
<path d="M367.709 294.167V252.276H409.6V294.167H367.709Z" fill="white"/>
<path d="M72.6109 196.422V182.458H86.5745V196.422H72.6109Z" fill="#EAC400"/>
<path d="M53.9927 207.593V193.629H67.9564V207.593H53.9927Z" fill="#EAC400"/>
<path d="M35.3745 188.975V175.011H49.3382V188.975H35.3745Z" fill="#EAC400"/>
<path d="M58.6473 178.735V164.771H72.6109V178.735H58.6473Z" fill="#EAC400"/>
<path d="M72.6109 224.349V210.385H86.5745V224.349H72.6109Z" fill="#EAC400"/>
<path d="M72.6109 224.349V210.385H100.538V224.349H72.6109Z" fill="#EAC400"/>
<path d="M100.538 224.349V168.495H128.465V224.349H100.538Z" fill="#EAC400"/>
<path d="M86.5745 182.458V168.495H100.538V182.458H86.5745Z" fill="#EAC400"/>
<path d="M86.5745 210.385V196.422H100.538V210.385H86.5745Z" fill="#EAC400"/>
<path d="M72.6109 391.913V224.349H128.465V391.913H72.6109Z" fill="white"/>
<path d="M128.465 224.349V168.495H184.32V224.349H128.465Z" fill="white"/>
<path d="M184.32 224.349V168.495H240.175V224.349H184.32Z" fill="white"/>
<path d="M240.175 224.349V168.495H296.029V224.349H240.175Z" fill="white"/>
<path d="M184.32 391.913V224.349H240.175V391.913H184.32Z" fill="white"/>
<path d="M328.145 59.5782L338.679 80.9206L362.231 84.343L345.188 100.956L349.212 124.413L328.145 113.338L307.079 124.413L311.103 100.956L294.06 84.343L317.612 80.9206L328.145 59.5782Z" fill="#EAC400"/>
<path d="M401.222 151.738L409.189 166.838L426.012 169.749L414.112 181.992L416.543 198.891L401.222 191.358L385.901 198.891L388.331 181.992L376.432 169.749L393.255 166.838L401.222 151.738Z" fill="#EAC400"/>
<path d="M219.229 89.3673L225.385 101.84L239.149 103.84L229.189 113.549L231.541 127.258L219.229 120.785L206.918 127.258L209.269 113.549L199.309 103.84L213.073 101.84L219.229 89.3673Z" fill="#EAC400"/>
<path d="M445.905 38.1673L462.594 69.7651L499.912 74.8321L472.909 99.4276L479.283 134.157L445.905 117.76L412.528 134.157L418.902 99.4276L391.899 74.8321L429.217 69.7651L445.905 38.1673Z" fill="#EAC400"/>
<path d="M289.67 327.679L294.627 329.251C293.867 332.015 292.601 334.07 290.827 335.417C289.065 336.753 286.826 337.421 284.108 337.421C280.746 337.421 277.982 336.275 275.817 333.984C273.652 331.681 272.57 328.537 272.57 324.553C272.57 320.338 273.658 317.068 275.835 314.742C278.011 312.404 280.872 311.235 284.419 311.235C287.517 311.235 290.033 312.151 291.967 313.982C293.119 315.064 293.982 316.619 294.558 318.645L289.497 319.855C289.198 318.542 288.57 317.505 287.615 316.745C286.67 315.985 285.519 315.605 284.16 315.605C282.283 315.605 280.757 316.279 279.583 317.626C278.42 318.974 277.838 321.156 277.838 324.173C277.838 327.374 278.414 329.654 279.565 331.013C280.717 332.372 282.214 333.051 284.056 333.051C285.415 333.051 286.584 332.619 287.563 331.755C288.542 330.892 289.244 329.533 289.67 327.679Z" fill="white"/>
<path d="M297.875 327.558C297.875 325.946 298.272 324.386 299.066 322.877C299.861 321.369 300.984 320.217 302.435 319.423C303.897 318.628 305.526 318.231 307.323 318.231C310.098 318.231 312.372 319.135 314.145 320.943C315.919 322.739 316.805 325.013 316.805 327.765C316.805 330.541 315.907 332.844 314.111 334.675C312.326 336.494 310.075 337.404 307.357 337.404C305.676 337.404 304.07 337.024 302.538 336.264C301.018 335.504 299.861 334.392 299.066 332.93C298.272 331.456 297.875 329.665 297.875 327.558ZM302.849 327.817C302.849 329.637 303.281 331.03 304.145 331.997C305.008 332.965 306.073 333.448 307.34 333.448C308.607 333.448 309.666 332.965 310.518 331.997C311.382 331.03 311.814 329.625 311.814 327.783C311.814 325.986 311.382 324.605 310.518 323.637C309.666 322.67 308.607 322.186 307.34 322.186C306.073 322.186 305.008 322.67 304.145 323.637C303.281 324.605 302.849 325.998 302.849 327.817Z" fill="white"/>
<path d="M320.623 336.989V311.667H325.476V336.989H320.623Z" fill="white"/>
<path d="M330.468 336.989V311.667H335.322V336.989H330.468Z" fill="white"/>
<path d="M350.936 331.151L355.773 331.963C355.151 333.736 354.166 335.089 352.819 336.022C351.483 336.943 349.808 337.404 347.793 337.404C344.603 337.404 342.242 336.362 340.711 334.277C339.502 332.608 338.897 330.5 338.897 327.955C338.897 324.915 339.692 322.538 341.281 320.822C342.87 319.095 344.879 318.231 347.309 318.231C350.038 318.231 352.192 319.135 353.769 320.943C355.347 322.739 356.101 325.497 356.032 329.216H343.872C343.906 330.656 344.298 331.778 345.046 332.585C345.795 333.379 346.728 333.776 347.845 333.776C348.605 333.776 349.244 333.569 349.762 333.155C350.28 332.74 350.672 332.072 350.936 331.151ZM351.213 326.245C351.178 324.841 350.815 323.775 350.125 323.05C349.434 322.313 348.593 321.945 347.603 321.945C346.543 321.945 345.668 322.33 344.977 323.102C344.286 323.873 343.947 324.921 343.958 326.245H351.213Z" fill="white"/>
<path d="M359.555 338.198L365.1 338.872C365.192 339.517 365.405 339.96 365.739 340.202C366.2 340.547 366.925 340.72 367.915 340.72C369.182 340.72 370.132 340.53 370.765 340.15C371.192 339.897 371.514 339.488 371.733 338.924C371.882 338.521 371.957 337.778 371.957 336.695V334.018C370.506 335.999 368.675 336.989 366.465 336.989C364 336.989 362.048 335.947 360.609 333.863C359.481 332.216 358.916 330.166 358.916 327.714C358.916 324.639 359.653 322.29 361.127 320.666C362.613 319.043 364.455 318.231 366.655 318.231C368.923 318.231 370.794 319.227 372.268 321.219V318.645H376.811V335.106C376.811 337.271 376.632 338.889 376.275 339.96C375.918 341.031 375.418 341.872 374.773 342.482C374.128 343.092 373.264 343.57 372.182 343.915C371.111 344.261 369.752 344.434 368.105 344.434C364.996 344.434 362.791 343.898 361.49 342.827C360.189 341.768 359.538 340.421 359.538 338.785C359.538 338.624 359.544 338.428 359.555 338.198ZM363.891 327.437C363.891 329.383 364.265 330.811 365.014 331.721C365.774 332.619 366.706 333.068 367.812 333.068C368.998 333.068 370 332.608 370.817 331.686C371.635 330.754 372.044 329.378 372.044 327.558C372.044 325.658 371.652 324.248 370.869 323.326C370.086 322.405 369.096 321.945 367.898 321.945C366.735 321.945 365.774 322.399 365.014 323.309C364.265 324.207 363.891 325.583 363.891 327.437Z" fill="white"/>
<path d="M392.253 331.151L397.089 331.963C396.467 333.736 395.483 335.089 394.135 336.022C392.8 336.943 391.124 337.404 389.109 337.404C385.919 337.404 383.559 336.362 382.027 334.277C380.818 332.608 380.214 330.5 380.214 327.955C380.214 324.915 381.008 322.538 382.597 320.822C384.186 319.095 386.196 318.231 388.625 318.231C391.355 318.231 393.508 319.135 395.085 320.943C396.663 322.739 397.417 325.497 397.348 329.216H385.188C385.223 330.656 385.614 331.778 386.363 332.585C387.111 333.379 388.044 333.776 389.161 333.776C389.921 333.776 390.56 333.569 391.078 333.155C391.596 332.74 391.988 332.072 392.253 331.151ZM392.529 326.245C392.495 324.841 392.132 323.775 391.441 323.05C390.75 322.313 389.909 321.945 388.919 321.945C387.86 321.945 386.985 322.33 386.294 323.102C385.603 323.873 385.263 324.921 385.275 326.245H392.529Z" fill="white"/>
<path d="M410.044 327.558C410.044 325.946 410.441 324.386 411.235 322.877C412.03 321.369 413.153 320.217 414.604 319.423C416.066 318.628 417.695 318.231 419.492 318.231C422.267 318.231 424.541 319.135 426.315 320.943C428.088 322.739 428.975 325.013 428.975 327.765C428.975 330.541 428.076 332.844 426.28 334.675C424.495 336.494 422.244 337.404 419.526 337.404C417.845 337.404 416.239 337.024 414.707 336.264C413.187 335.504 412.03 334.392 411.235 332.93C410.441 331.456 410.044 329.665 410.044 327.558ZM415.018 327.817C415.018 329.637 415.45 331.03 416.314 331.997C417.177 332.965 418.242 333.448 419.509 333.448C420.776 333.448 421.835 332.965 422.687 331.997C423.551 331.03 423.983 329.625 423.983 327.783C423.983 325.986 423.551 324.605 422.687 323.637C421.835 322.67 420.776 322.186 419.509 322.186C418.242 322.186 417.177 322.67 416.314 323.637C415.45 324.605 415.018 325.998 415.018 327.817Z" fill="white"/>
<path d="M430.667 318.645H433.362V317.264C433.362 315.721 433.523 314.569 433.845 313.809C434.179 313.049 434.784 312.433 435.659 311.961C436.546 311.477 437.663 311.235 439.01 311.235C440.392 311.235 441.745 311.443 443.069 311.857L442.413 315.243C441.641 315.058 440.898 314.966 440.185 314.966C439.482 314.966 438.975 315.133 438.665 315.467C438.365 315.79 438.215 316.417 438.215 317.35V318.645H441.843V322.463H438.215V336.989H433.362V322.463H430.667V318.645Z" fill="white"/>
<path d="M279.168 382.604V361.565H271.655V357.282H291.777V361.565H284.281V382.604H279.168Z" fill="white"/>
<path d="M303.056 376.765L307.893 377.577C307.271 379.351 306.286 380.704 304.939 381.636C303.603 382.558 301.928 383.018 299.913 383.018C296.723 383.018 294.362 381.976 292.831 379.892C291.622 378.222 291.017 376.115 291.017 373.57C291.017 370.53 291.812 368.152 293.401 366.436C294.99 364.709 296.999 363.845 299.429 363.845C302.158 363.845 304.312 364.749 305.889 366.557C307.467 368.354 308.221 371.112 308.152 374.831H295.992C296.026 376.27 296.418 377.393 297.166 378.199C297.915 378.994 298.848 379.391 299.965 379.391C300.725 379.391 301.364 379.184 301.882 378.769C302.4 378.355 302.792 377.687 303.056 376.765ZM303.333 371.86C303.298 370.455 302.935 369.39 302.245 368.665C301.554 367.928 300.713 367.559 299.723 367.559C298.663 367.559 297.788 367.945 297.097 368.716C296.406 369.488 296.067 370.536 296.078 371.86H303.333Z" fill="white"/>
<path d="M328.119 369.684L323.335 370.547C323.173 369.592 322.805 368.872 322.229 368.388C321.665 367.905 320.928 367.663 320.018 367.663C318.809 367.663 317.842 368.083 317.116 368.924C316.402 369.753 316.045 371.146 316.045 373.104C316.045 375.28 316.408 376.817 317.134 377.715C317.871 378.614 318.855 379.063 320.087 379.063C321.008 379.063 321.763 378.804 322.35 378.285C322.937 377.756 323.352 376.852 323.594 375.574L328.361 376.385C327.866 378.573 326.916 380.226 325.511 381.343C324.106 382.46 322.223 383.018 319.863 383.018C317.18 383.018 315.038 382.172 313.437 380.479C311.848 378.786 311.054 376.443 311.054 373.449C311.054 370.421 311.854 368.066 313.455 366.385C315.055 364.692 317.22 363.845 319.949 363.845C322.183 363.845 323.956 364.329 325.269 365.296C326.593 366.252 327.543 367.715 328.119 369.684Z" fill="white"/>
<path d="M336.652 357.282V366.592C338.218 364.761 340.089 363.845 342.265 363.845C343.382 363.845 344.39 364.053 345.288 364.467C346.186 364.882 346.86 365.412 347.309 366.056C347.77 366.701 348.081 367.415 348.242 368.198C348.415 368.981 348.501 370.196 348.501 371.843V382.604H343.647V372.914C343.647 370.991 343.555 369.77 343.371 369.252C343.187 368.734 342.858 368.325 342.386 368.025C341.926 367.715 341.344 367.559 340.642 367.559C339.836 367.559 339.116 367.755 338.483 368.146C337.849 368.538 337.383 369.131 337.084 369.925C336.796 370.708 336.652 371.872 336.652 373.415V382.604H331.798V357.282H336.652Z" fill="white"/>
<path d="M370.126 382.604H365.273V373.242C365.273 371.261 365.169 369.983 364.962 369.407C364.755 368.82 364.415 368.365 363.943 368.043C363.482 367.72 362.924 367.559 362.267 367.559C361.427 367.559 360.672 367.789 360.005 368.25C359.337 368.711 358.876 369.321 358.623 370.081C358.381 370.841 358.26 372.246 358.26 374.295V382.604H353.406V364.26H357.915V366.955C359.515 364.882 361.53 363.845 363.96 363.845C365.031 363.845 366.01 364.041 366.896 364.433C367.783 364.813 368.451 365.302 368.9 365.901C369.361 366.5 369.677 367.179 369.85 367.939C370.034 368.699 370.126 369.787 370.126 371.204V382.604Z" fill="white"/>
<path d="M373.944 373.173C373.944 371.561 374.341 370 375.135 368.492C375.93 366.983 377.053 365.832 378.504 365.037C379.966 364.243 381.595 363.845 383.392 363.845C386.167 363.845 388.441 364.749 390.215 366.557C391.988 368.354 392.875 370.628 392.875 373.38C392.875 376.155 391.976 378.458 390.18 380.289C388.395 382.108 386.144 383.018 383.426 383.018C381.745 383.018 380.139 382.638 378.607 381.878C377.087 381.118 375.93 380.007 375.135 378.545C374.341 377.071 373.944 375.28 373.944 373.173ZM378.918 373.432C378.918 375.251 379.35 376.645 380.214 377.612C381.077 378.579 382.142 379.063 383.409 379.063C384.676 379.063 385.735 378.579 386.587 377.612C387.451 376.645 387.883 375.24 387.883 373.397C387.883 371.601 387.451 370.219 386.587 369.252C385.735 368.285 384.676 367.801 383.409 367.801C382.142 367.801 381.077 368.285 380.214 369.252C379.35 370.219 378.918 371.612 378.918 373.432Z" fill="white"/>
<path d="M396.692 382.604V357.282H401.545V382.604H396.692Z" fill="white"/>
<path d="M405.415 373.173C405.415 371.561 405.812 370 406.606 368.492C407.401 366.983 408.524 365.832 409.975 365.037C411.437 364.243 413.066 363.845 414.863 363.845C417.638 363.845 419.912 364.749 421.685 366.557C423.459 368.354 424.345 370.628 424.345 373.38C424.345 376.155 423.447 378.458 421.651 380.289C419.866 382.108 417.615 383.018 414.897 383.018C413.216 383.018 411.61 382.638 410.078 381.878C408.558 381.118 407.401 380.007 406.606 378.545C405.812 377.071 405.415 375.28 405.415 373.173ZM410.389 373.432C410.389 375.251 410.821 376.645 411.685 377.612C412.548 378.579 413.613 379.063 414.88 379.063C416.147 379.063 417.206 378.579 418.058 377.612C418.922 376.645 419.354 375.24 419.354 373.397C419.354 371.601 418.922 370.219 418.058 369.252C417.206 368.285 416.147 367.801 414.88 367.801C413.613 367.801 412.548 368.285 411.685 369.252C410.821 370.219 410.389 371.612 410.389 373.432Z" fill="white"/>
<path d="M427.714 383.813L433.258 384.486C433.35 385.131 433.563 385.575 433.897 385.816C434.358 386.162 435.083 386.335 436.074 386.335C437.34 386.335 438.29 386.145 438.924 385.765C439.35 385.511 439.672 385.102 439.891 384.538C440.041 384.135 440.115 383.392 440.115 382.31V379.633C438.665 381.613 436.834 382.604 434.623 382.604C432.158 382.604 430.207 381.562 428.767 379.477C427.639 377.831 427.075 375.781 427.075 373.328C427.075 370.254 427.812 367.905 429.285 366.281C430.771 364.657 432.613 363.845 434.813 363.845C437.081 363.845 438.952 364.842 440.426 366.834V364.26H444.969V380.721C444.969 382.886 444.791 384.504 444.434 385.575C444.077 386.645 443.576 387.486 442.931 388.096C442.286 388.707 441.422 389.185 440.34 389.53C439.269 389.875 437.91 390.048 436.264 390.048C433.155 390.048 430.949 389.513 429.648 388.442C428.347 387.382 427.696 386.035 427.696 384.4C427.696 384.239 427.702 384.043 427.714 383.813ZM432.049 373.052C432.049 374.998 432.423 376.426 433.172 377.335C433.932 378.234 434.865 378.683 435.97 378.683C437.156 378.683 438.158 378.222 438.975 377.301C439.793 376.368 440.202 374.992 440.202 373.173C440.202 371.273 439.81 369.862 439.027 368.941C438.244 368.02 437.254 367.559 436.056 367.559C434.893 367.559 433.932 368.014 433.172 368.924C432.423 369.822 432.049 371.198 432.049 373.052Z" fill="white"/>
<path d="M447.491 364.26H452.655L457.043 377.284L461.326 364.26H466.353L459.875 381.913L458.718 385.108C458.292 386.179 457.883 386.997 457.492 387.561C457.112 388.125 456.668 388.58 456.162 388.925C455.667 389.282 455.051 389.559 454.314 389.755C453.588 389.95 452.765 390.048 451.844 390.048C450.911 390.048 449.995 389.95 449.097 389.755L448.665 385.955C449.425 386.104 450.111 386.179 450.721 386.179C451.849 386.179 452.684 385.845 453.225 385.177C453.767 384.521 454.181 383.68 454.469 382.655L447.491 364.26Z" fill="white"/>
<path d="M273.796 287.651V259.664H279.295L290.749 278.354V259.664H295.999V287.651H290.329L279.046 269.4V287.651H273.796Z" fill="#2C6BCC"/>
<path d="M326.56 287.651V259.664H347.312V264.398H332.211V270.603H346.262V275.318H332.211V282.935H347.846V287.651H326.56Z" fill="#2C6BCC"/>
<path d="M377.166 259.664H382.817V274.822C382.817 277.227 382.887 278.786 383.027 279.499C383.269 280.645 383.841 281.567 384.745 282.267C385.661 282.955 386.909 283.298 388.487 283.298C390.091 283.298 391.3 282.974 392.114 282.325C392.929 281.663 393.419 280.855 393.584 279.9C393.75 278.945 393.832 277.361 393.832 275.146V259.664H399.483V274.364C399.483 277.724 399.331 280.097 399.025 281.485C398.72 282.872 398.153 284.043 397.326 284.997C396.511 285.952 395.417 286.715 394.042 287.288C392.668 287.848 390.873 288.128 388.659 288.128C385.986 288.128 383.956 287.823 382.569 287.212C381.194 286.588 380.106 285.786 379.304 284.806C378.502 283.814 377.974 282.776 377.72 281.695C377.351 280.091 377.166 277.724 377.166 274.593V259.664Z" fill="#2C6BCC"/>
</svg>
